<svg width="1543" height="343" viewBox="0 0 1543 343" fill="none" xmlns="http://www.w3.org/2000/svg">
<mask id="path-1-outside-1_106_5" maskUnits="userSpaceOnUse" x="0" y="0" width="1543" height="343" fill="black">
<rect fill="white" width="1543" height="343"/>
<path d="M28.9902 66.0303C38.8372 62.7751 48.0739 59.764 56.7002 56.9971C65.4079 54.2301 74.5632 51.626 84.166 49.1846C93.7689 46.6618 102.965 44.668 111.754 43.2031C118.508 42.0638 125.426 41.4941 132.506 41.4941C144.306 41.4941 152.037 41.8197 155.699 42.4707C161.233 43.5286 166.441 45.2376 171.324 47.5977C176.288 49.9577 180.683 53.1315 184.508 57.1191C188.414 61.0254 191.588 65.6641 194.029 71.0352C195.006 73.2324 195.494 75.5518 195.494 77.9932C195.494 87.1077 190.489 98.3382 180.479 111.685C170.551 125.031 160.541 136.668 150.45 146.597C140.44 156.525 132.953 163.646 127.989 167.959L149.962 244.985L117.979 268.057L61.9492 108.022C61.7865 108.022 61.0133 108.796 59.6299 110.342C58.2464 111.888 56.4154 113.923 54.1367 116.445C51.9395 118.887 50.556 120.392 49.9863 120.962C49.7422 120.962 48.9284 119.212 47.5449 115.713C46.2428 112.214 44.4525 107.371 42.1738 101.187C39.9766 94.9202 37.4945 88.0029 34.7275 80.4346C31.8792 72.7848 29.9668 67.9834 28.9902 66.0303ZM107.97 99.9658L117.979 135.977C123.025 130.85 129.291 123.851 136.778 114.98C144.265 106.11 148.009 99.681 148.009 95.6934C148.009 94.1471 147.358 93.252 146.056 93.0078C142.394 92.194 138.772 91.7871 135.191 91.7871C124.449 91.7871 115.375 94.5133 107.97 99.9658ZM287.169 127.798C292.947 130.89 297.626 135.081 301.207 140.371C304.869 145.579 307.514 151.479 309.142 158.071C310.851 164.582 311.705 171.377 311.705 178.457C311.705 184.316 311.217 189.972 310.24 195.425C309.345 200.877 308.084 205.882 306.456 210.439C304.828 214.997 302.916 218.862 300.719 222.036C295.592 229.686 290.099 236.278 284.239 241.812C278.38 247.345 272.398 251.821 266.295 255.239C260.191 258.576 254.129 261.017 248.106 262.563C242.166 264.191 236.266 265.005 230.406 265.005C223.489 265.005 216.897 263.906 210.631 261.709C204.446 259.593 199.156 256.785 194.762 253.286C187.519 247.264 181.863 239.167 177.794 228.994C173.725 218.74 171.69 207.917 171.69 196.523C171.69 176.911 177.346 161.082 188.658 149.038C198.342 138.703 208.352 130.931 218.688 125.723C229.023 120.433 239.602 117.788 250.426 117.788C256.773 117.788 262.877 118.602 268.736 120.229C274.596 121.776 280.74 124.299 287.169 127.798ZM279.967 148.306C278.583 154.491 275.572 159.943 270.934 164.663C266.376 169.383 261.9 171.743 257.506 171.743C255.309 171.743 253.355 171.174 251.646 170.034C249.205 168.081 247.984 164.663 247.984 159.78C247.984 156.037 249.205 152.334 251.646 148.672C254.169 145.01 258.116 142.121 263.487 140.005C258.116 140.005 252.908 141.022 247.862 143.057C242.898 145.091 238.626 147.736 235.045 150.991C231.464 154.165 228.575 157.786 226.378 161.855C224.262 165.843 223.204 169.871 223.204 173.94C223.204 181.509 226.703 187.531 233.702 192.007C240.213 196.157 246.397 198.232 252.257 198.232C258.035 198.232 263.162 196.32 267.638 192.495C272.114 188.589 275.532 183.625 277.892 177.603C280.252 171.499 281.432 165.477 281.432 159.536C281.432 155.467 280.943 151.724 279.967 148.306ZM291.441 56.0205L353.453 30.0195L362.486 171.011L413.512 143.057L466.49 150.991L397.398 203.97L462.462 253.042L465.392 301.992L369.444 233.022L372.496 292.959L314.391 294.058L303.404 82.0215L285.46 86.0498L291.441 56.0205ZM551.451 192.495L580.87 228.018C578.51 234.854 572.895 241.12 564.024 246.816C555.235 252.513 544.737 256.989 532.53 260.244C520.405 263.581 508.279 265.249 496.153 265.249C485.411 265.249 475.808 263.825 467.345 260.977C458.963 258.128 452.493 253.815 447.936 248.037C440.042 238.109 436.095 225.413 436.095 209.951C436.095 197.744 438.292 185.741 442.687 173.94C447.162 162.059 451.882 153.758 456.847 149.038C462.787 143.423 469.216 138.743 476.134 135C483.132 131.257 490.375 128.449 497.862 126.577C505.349 124.705 513.04 123.77 520.934 123.77C531.269 123.77 541.075 125.438 550.353 128.774C559.711 132.03 567.89 136.79 574.889 143.057L507.872 223.013C513.813 223.013 519.428 221.792 524.718 219.351C530.089 216.828 535.012 213.288 539.488 208.73C543.964 204.092 547.952 198.68 551.451 192.495ZM517.638 164.053C513.65 162.018 509.581 161.001 505.431 161.001C501.036 161.001 496.764 161.896 492.613 163.687C488.544 165.477 485.655 167.593 483.946 170.034C478.901 176.545 476.378 183.706 476.378 191.519C476.378 194.367 476.663 197.093 477.232 199.697C477.802 202.301 478.779 205.882 480.162 210.439L517.638 164.053ZM454.894 76.04L519.957 40.0293L547.911 82.998L468.932 98.0127L454.894 76.04ZM565.855 129.995L682.921 119.009L678.893 159.048L562.926 162.954L565.855 129.995ZM789.488 98.9893L796.446 263.052H789C784.117 263.052 777.932 262.889 770.445 262.563C762.958 262.319 756.163 261.79 750.06 260.977C743.956 260.244 739.439 259.268 736.51 258.047L728.453 100.942L652.403 102.041L653.502 53.9453L848.448 41.0059L851.5 93.9844L789.488 98.9893ZM926.451 192.495L955.87 228.018C953.51 234.854 947.895 241.12 939.024 246.816C930.235 252.513 919.737 256.989 907.53 260.244C895.405 263.581 883.279 265.249 871.153 265.249C860.411 265.249 850.808 263.825 842.345 260.977C833.963 258.128 827.493 253.815 822.936 248.037C815.042 238.109 811.095 225.413 811.095 209.951C811.095 197.744 813.292 185.741 817.687 173.94C822.162 162.059 826.882 153.758 831.847 149.038C837.787 143.423 844.216 138.743 851.134 135C858.132 131.257 865.375 128.449 872.862 126.577C880.349 124.705 888.04 123.77 895.934 123.77C906.269 123.77 916.075 125.438 925.353 128.774C934.711 132.03 942.89 136.79 949.889 143.057L882.872 223.013C888.813 223.013 894.428 221.792 899.718 219.351C905.089 216.828 910.012 213.288 914.488 208.73C918.964 204.092 922.952 198.68 926.451 192.495ZM892.638 164.053C888.65 162.018 884.581 161.001 880.431 161.001C876.036 161.001 871.764 161.896 867.613 163.687C863.544 165.477 860.655 167.593 858.946 170.034C853.901 176.545 851.378 183.706 851.378 191.519C851.378 194.367 851.663 197.093 852.232 199.697C852.802 202.301 853.779 205.882 855.162 210.439L892.638 164.053ZM1047.46 140.493C1042.98 141.063 1038.55 142.487 1034.15 144.766C1029.84 147.044 1026.14 149.73 1023.04 152.822C1019.95 155.915 1017.51 159.333 1015.72 163.076C1014.01 166.738 1013.16 170.36 1013.16 173.94C1013.16 181.346 1016.65 187.368 1023.65 192.007C1029.84 196.157 1036.1 198.232 1042.45 198.232C1043.67 198.232 1045.34 198.07 1047.46 197.744V171.743C1045.26 171.743 1043.31 171.174 1041.6 170.034C1039.16 168.081 1037.94 164.338 1037.94 158.804C1037.94 150.828 1041.11 144.725 1047.46 140.493ZM1048.43 119.009L1099.46 96.0596L1100.44 164.297C1101.09 168.529 1101.41 173.33 1101.41 178.701C1101.41 183.421 1101.25 186.921 1100.92 189.199L1102.39 264.028L1047.46 266.958V259.512C1038.51 263.174 1029.47 265.005 1020.36 265.005C1013.36 265.005 1006.77 263.947 1000.58 261.831C994.479 259.715 989.189 256.867 984.713 253.286C977.47 247.264 971.814 239.167 967.745 228.994C963.676 218.74 961.642 207.917 961.642 196.523C961.642 176.911 967.298 161.082 978.609 149.038C988.375 138.784 998.425 131.012 1008.76 125.723C1019.18 120.433 1029.8 117.788 1040.62 117.788C1043.63 117.788 1045.91 117.869 1047.46 118.032L1048.43 119.009ZM1229.38 119.985C1250.45 113.312 1266.12 109.976 1276.37 109.976C1284.51 109.976 1291.51 111.644 1297.37 114.98C1304.61 119.131 1312.42 126.211 1320.81 136.221C1329.19 146.23 1334.4 155.508 1336.43 164.053C1340.74 181.387 1342.9 196.523 1342.9 209.463C1342.9 216.299 1342.45 223.501 1341.56 231.069C1340.66 238.556 1339.28 248.2 1337.41 260L1286.38 263.052C1286.55 258.983 1286.63 253.123 1286.63 245.474C1286.63 213.573 1282.23 186.432 1273.44 164.053C1271.82 160.065 1269.9 156.932 1267.71 154.653C1265.51 152.375 1263.56 151.235 1261.85 151.235C1260.06 151.235 1259.16 152.497 1259.16 155.02C1259.16 156.484 1259.32 157.746 1259.65 158.804C1260.22 160.106 1260.79 161.855 1261.36 164.053C1265.75 181.712 1267.95 196.849 1267.95 209.463C1267.95 215.648 1267.54 222.158 1266.73 228.994C1265.92 235.749 1264.49 246.084 1262.46 260L1211.43 263.052C1211.59 258.983 1211.68 253.123 1211.68 245.474C1211.68 213.491 1207.24 186.351 1198.37 164.053C1197.31 161.449 1196.5 158.722 1195.93 155.874C1195.36 152.944 1194.95 151.479 1194.71 151.479C1194.38 151.479 1193.45 153.392 1191.9 157.217C1190.35 161.042 1188.69 164.989 1186.9 169.058C1185.67 171.906 1184.66 175.161 1183.84 178.823C1183.11 182.485 1182.54 186.595 1182.13 191.152C1181.81 195.71 1181.65 201.081 1181.65 207.266C1181.65 219.798 1182.38 235.708 1183.84 254.995L1123.91 261.953C1122.93 254.792 1122.04 247.671 1121.22 240.591C1120.41 233.511 1119.76 226.96 1119.27 220.938C1118.86 214.834 1118.66 208.283 1118.66 201.284C1118.66 198.273 1118.82 193.919 1119.15 188.223L1116.95 117.056L1164.92 110.952L1171.88 119.009C1184.74 114.858 1195.24 112.783 1203.38 112.783C1212.41 112.783 1221.08 115.184 1229.38 119.985ZM1496.01 166.982C1493.57 166.087 1487.63 164.215 1478.19 161.367C1468.83 158.438 1460.45 155.915 1453.04 153.799C1445.72 151.683 1437.62 149.648 1428.75 147.695C1419.88 145.742 1412.96 144.766 1408 144.766C1405.39 144.766 1403.4 145.173 1402.02 145.986C1398.03 148.997 1396.04 151.764 1396.04 154.287C1396.04 158.275 1400.02 161.733 1408 164.663C1415.97 167.511 1425.66 169.627 1437.05 171.011C1452.68 172.72 1465.29 176.382 1474.89 181.997C1484.58 187.612 1491.58 194.163 1495.89 201.65C1500.2 209.056 1502.36 216.665 1502.36 224.478C1502.36 230.011 1501.26 235.179 1499.06 239.98C1489.62 260 1471.52 270.01 1444.74 270.01C1437.42 270.01 1429.16 269.196 1419.96 267.568C1410.77 266.022 1401.94 264.069 1393.47 261.709C1385.09 259.43 1376.14 256.745 1366.62 253.652C1357.1 250.56 1348.23 247.671 1340.01 244.985C1342.12 240.591 1344.81 235.301 1348.06 229.116C1351.32 222.85 1354.49 216.746 1357.58 210.806C1360.6 204.865 1362.1 201.61 1362.1 201.04C1364.46 203.237 1367.39 205.028 1370.89 206.411C1374.47 207.713 1379.64 209.3 1386.39 211.172C1393.23 212.962 1398.44 214.59 1402.02 216.055C1409.91 218.984 1418.09 220.449 1426.55 220.449C1431.76 220.449 1436.73 219.92 1441.45 218.862C1446.17 217.723 1448.69 216.787 1449.01 216.055C1449.01 213.939 1445.39 211.864 1438.15 209.829C1430.99 207.713 1422.97 206.086 1414.1 204.946C1404.01 203.807 1393.84 201.366 1383.58 197.622C1373.41 193.797 1364.75 188.223 1357.58 180.898C1350.42 173.574 1346.84 164.541 1346.84 153.799C1346.84 145.579 1348.92 136.994 1353.07 128.042C1357.62 118.032 1364.46 110.789 1373.58 106.313C1382.69 101.756 1393.59 99.4775 1406.29 99.4775C1420.94 99.4775 1436.03 101.553 1451.58 105.703C1467.12 109.854 1488.28 116.283 1515.05 124.99C1514.49 126.211 1512.25 131.419 1508.34 140.615C1504.43 149.73 1501.5 156.403 1499.55 160.635C1497.6 164.867 1496.42 166.982 1496.01 166.982Z"/>
</mask>
<g filter="url(#filter0_i_106_5)">
<path d="M28.9902 66.0303C38.8372 62.7751 48.0739 59.764 56.7002 56.9971C65.4079 54.2301 74.5632 51.626 84.166 49.1846C93.7689 46.6618 102.965 44.668 111.754 43.2031C118.508 42.0638 125.426 41.4941 132.506 41.4941C144.306 41.4941 152.037 41.8197 155.699 42.4707C161.233 43.5286 166.441 45.2376 171.324 47.5977C176.288 49.9577 180.683 53.1315 184.508 57.1191C188.414 61.0254 191.588 65.6641 194.029 71.0352C195.006 73.2324 195.494 75.5518 195.494 77.9932C195.494 87.1077 190.489 98.3382 180.479 111.685C170.551 125.031 160.541 136.668 150.45 146.597C140.44 156.525 132.953 163.646 127.989 167.959L149.962 244.985L117.979 268.057L61.9492 108.022C61.7865 108.022 61.0133 108.796 59.6299 110.342C58.2464 111.888 56.4154 113.923 54.1367 116.445C51.9395 118.887 50.556 120.392 49.9863 120.962C49.7422 120.962 48.9284 119.212 47.5449 115.713C46.2428 112.214 44.4525 107.371 42.1738 101.187C39.9766 94.9202 37.4945 88.0029 34.7275 80.4346C31.8792 72.7848 29.9668 67.9834 28.9902 66.0303ZM107.97 99.9658L117.979 135.977C123.025 130.85 129.291 123.851 136.778 114.98C144.265 106.11 148.009 99.681 148.009 95.6934C148.009 94.1471 147.358 93.252 146.056 93.0078C142.394 92.194 138.772 91.7871 135.191 91.7871C124.449 91.7871 115.375 94.5133 107.97 99.9658ZM287.169 127.798C292.947 130.89 297.626 135.081 301.207 140.371C304.869 145.579 307.514 151.479 309.142 158.071C310.851 164.582 311.705 171.377 311.705 178.457C311.705 184.316 311.217 189.972 310.24 195.425C309.345 200.877 308.084 205.882 306.456 210.439C304.828 214.997 302.916 218.862 300.719 222.036C295.592 229.686 290.099 236.278 284.239 241.812C278.38 247.345 272.398 251.821 266.295 255.239C260.191 258.576 254.129 261.017 248.106 262.563C242.166 264.191 236.266 265.005 230.406 265.005C223.489 265.005 216.897 263.906 210.631 261.709C204.446 259.593 199.156 256.785 194.762 253.286C187.519 247.264 181.863 239.167 177.794 228.994C173.725 218.74 171.69 207.917 171.69 196.523C171.69 176.911 177.346 161.082 188.658 149.038C198.342 138.703 208.352 130.931 218.688 125.723C229.023 120.433 239.602 117.788 250.426 117.788C256.773 117.788 262.877 118.602 268.736 120.229C274.596 121.776 280.74 124.299 287.169 127.798ZM279.967 148.306C278.583 154.491 275.572 159.943 270.934 164.663C266.376 169.383 261.9 171.743 257.506 171.743C255.309 171.743 253.355 171.174 251.646 170.034C249.205 168.081 247.984 164.663 247.984 159.78C247.984 156.037 249.205 152.334 251.646 148.672C254.169 145.01 258.116 142.121 263.487 140.005C258.116 140.005 252.908 141.022 247.862 143.057C242.898 145.091 238.626 147.736 235.045 150.991C231.464 154.165 228.575 157.786 226.378 161.855C224.262 165.843 223.204 169.871 223.204 173.94C223.204 181.509 226.703 187.531 233.702 192.007C240.213 196.157 246.397 198.232 252.257 198.232C258.035 198.232 263.162 196.32 267.638 192.495C272.114 188.589 275.532 183.625 277.892 177.603C280.252 171.499 281.432 165.477 281.432 159.536C281.432 155.467 280.943 151.724 279.967 148.306ZM291.441 56.0205L353.453 30.0195L362.486 171.011L413.512 143.057L466.49 150.991L397.398 203.97L462.462 253.042L465.392 301.992L369.444 233.022L372.496 292.959L314.391 294.058L303.404 82.0215L285.46 86.0498L291.441 56.0205ZM551.451 192.495L580.87 228.018C578.51 234.854 572.895 241.12 564.024 246.816C555.235 252.513 544.737 256.989 532.53 260.244C520.405 263.581 508.279 265.249 496.153 265.249C485.411 265.249 475.808 263.825 467.345 260.977C458.963 258.128 452.493 253.815 447.936 248.037C440.042 238.109 436.095 225.413 436.095 209.951C436.095 197.744 438.292 185.741 442.687 173.94C447.162 162.059 451.882 153.758 456.847 149.038C462.787 143.423 469.216 138.743 476.134 135C483.132 131.257 490.375 128.449 497.862 126.577C505.349 124.705 513.04 123.77 520.934 123.77C531.269 123.77 541.075 125.438 550.353 128.774C559.711 132.03 567.89 136.79 574.889 143.057L507.872 223.013C513.813 223.013 519.428 221.792 524.718 219.351C530.089 216.828 535.012 213.288 539.488 208.73C543.964 204.092 547.952 198.68 551.451 192.495ZM517.638 164.053C513.65 162.018 509.581 161.001 505.431 161.001C501.036 161.001 496.764 161.896 492.613 163.687C488.544 165.477 485.655 167.593 483.946 170.034C478.901 176.545 476.378 183.706 476.378 191.519C476.378 194.367 476.663 197.093 477.232 199.697C477.802 202.301 478.779 205.882 480.162 210.439L517.638 164.053ZM454.894 76.04L519.957 40.0293L547.911 82.998L468.932 98.0127L454.894 76.04ZM565.855 129.995L682.921 119.009L678.893 159.048L562.926 162.954L565.855 129.995ZM789.488 98.9893L796.446 263.052H789C784.117 263.052 777.932 262.889 770.445 262.563C762.958 262.319 756.163 261.79 750.06 260.977C743.956 260.244 739.439 259.268 736.51 258.047L728.453 100.942L652.403 102.041L653.502 53.9453L848.448 41.0059L851.5 93.9844L789.488 98.9893ZM926.451 192.495L955.87 228.018C953.51 234.854 947.895 241.12 939.024 246.816C930.235 252.513 919.737 256.989 907.53 260.244C895.405 263.581 883.279 265.249 871.153 265.249C860.411 265.249 850.808 263.825 842.345 260.977C833.963 258.128 827.493 253.815 822.936 248.037C815.042 238.109 811.095 225.413 811.095 209.951C811.095 197.744 813.292 185.741 817.687 173.94C822.162 162.059 826.882 153.758 831.847 149.038C837.787 143.423 844.216 138.743 851.134 135C858.132 131.257 865.375 128.449 872.862 126.577C880.349 124.705 888.04 123.77 895.934 123.77C906.269 123.77 916.075 125.438 925.353 128.774C934.711 132.03 942.89 136.79 949.889 143.057L882.872 223.013C888.813 223.013 894.428 221.792 899.718 219.351C905.089 216.828 910.012 213.288 914.488 208.73C918.964 204.092 922.952 198.68 926.451 192.495ZM892.638 164.053C888.65 162.018 884.581 161.001 880.431 161.001C876.036 161.001 871.764 161.896 867.613 163.687C863.544 165.477 860.655 167.593 858.946 170.034C853.901 176.545 851.378 183.706 851.378 191.519C851.378 194.367 851.663 197.093 852.232 199.697C852.802 202.301 853.779 205.882 855.162 210.439L892.638 164.053ZM1047.46 140.493C1042.98 141.063 1038.55 142.487 1034.15 144.766C1029.84 147.044 1026.14 149.73 1023.04 152.822C1019.95 155.915 1017.51 159.333 1015.72 163.076C1014.01 166.738 1013.16 170.36 1013.16 173.94C1013.16 181.346 1016.65 187.368 1023.65 192.007C1029.84 196.157 1036.1 198.232 1042.45 198.232C1043.67 198.232 1045.34 198.07 1047.46 197.744V171.743C1045.26 171.743 1043.31 171.174 1041.6 170.034C1039.16 168.081 1037.94 164.338 1037.94 158.804C1037.94 150.828 1041.11 144.725 1047.46 140.493ZM1048.43 119.009L1099.46 96.0596L1100.44 164.297C1101.09 168.529 1101.41 173.33 1101.41 178.701C1101.41 183.421 1101.25 186.921 1100.92 189.199L1102.39 264.028L1047.46 266.958V259.512C1038.51 263.174 1029.47 265.005 1020.36 265.005C1013.36 265.005 1006.77 263.947 1000.58 261.831C994.479 259.715 989.189 256.867 984.713 253.286C977.47 247.264 971.814 239.167 967.745 228.994C963.676 218.74 961.642 207.917 961.642 196.523C961.642 176.911 967.298 161.082 978.609 149.038C988.375 138.784 998.425 131.012 1008.76 125.723C1019.18 120.433 1029.8 117.788 1040.62 117.788C1043.63 117.788 1045.91 117.869 1047.46 118.032L1048.43 119.009ZM1229.38 119.985C1250.45 113.312 1266.12 109.976 1276.37 109.976C1284.51 109.976 1291.51 111.644 1297.37 114.98C1304.61 119.131 1312.42 126.211 1320.81 136.221C1329.19 146.23 1334.4 155.508 1336.43 164.053C1340.74 181.387 1342.9 196.523 1342.9 209.463C1342.9 216.299 1342.45 223.501 1341.56 231.069C1340.66 238.556 1339.28 248.2 1337.41 260L1286.38 263.052C1286.55 258.983 1286.63 253.123 1286.63 245.474C1286.63 213.573 1282.23 186.432 1273.44 164.053C1271.82 160.065 1269.9 156.932 1267.71 154.653C1265.51 152.375 1263.56 151.235 1261.85 151.235C1260.06 151.235 1259.16 152.497 1259.16 155.02C1259.16 156.484 1259.32 157.746 1259.65 158.804C1260.22 160.106 1260.79 161.855 1261.36 164.053C1265.75 181.712 1267.95 196.849 1267.95 209.463C1267.95 215.648 1267.54 222.158 1266.73 228.994C1265.92 235.749 1264.49 246.084 1262.46 260L1211.43 263.052C1211.59 258.983 1211.68 253.123 1211.68 245.474C1211.68 213.491 1207.24 186.351 1198.37 164.053C1197.31 161.449 1196.5 158.722 1195.93 155.874C1195.36 152.944 1194.95 151.479 1194.71 151.479C1194.38 151.479 1193.45 153.392 1191.9 157.217C1190.35 161.042 1188.69 164.989 1186.9 169.058C1185.67 171.906 1184.66 175.161 1183.84 178.823C1183.11 182.485 1182.54 186.595 1182.13 191.152C1181.81 195.71 1181.65 201.081 1181.65 207.266C1181.65 219.798 1182.38 235.708 1183.84 254.995L1123.91 261.953C1122.93 254.792 1122.04 247.671 1121.22 240.591C1120.41 233.511 1119.76 226.96 1119.27 220.938C1118.86 214.834 1118.66 208.283 1118.66 201.284C1118.66 198.273 1118.82 193.919 1119.15 188.223L1116.95 117.056L1164.92 110.952L1171.88 119.009C1184.74 114.858 1195.24 112.783 1203.38 112.783C1212.41 112.783 1221.08 115.184 1229.38 119.985ZM1496.01 166.982C1493.57 166.087 1487.63 164.215 1478.19 161.367C1468.83 158.438 1460.45 155.915 1453.04 153.799C1445.72 151.683 1437.62 149.648 1428.75 147.695C1419.88 145.742 1412.96 144.766 1408 144.766C1405.39 144.766 1403.4 145.173 1402.02 145.986C1398.03 148.997 1396.04 151.764 1396.04 154.287C1396.04 158.275 1400.02 161.733 1408 164.663C1415.97 167.511 1425.66 169.627 1437.05 171.011C1452.68 172.72 1465.29 176.382 1474.89 181.997C1484.58 187.612 1491.58 194.163 1495.89 201.65C1500.2 209.056 1502.36 216.665 1502.36 224.478C1502.36 230.011 1501.26 235.179 1499.06 239.98C1489.62 260 1471.52 270.01 1444.74 270.01C1437.42 270.01 1429.16 269.196 1419.96 267.568C1410.77 266.022 1401.94 264.069 1393.47 261.709C1385.09 259.43 1376.14 256.745 1366.62 253.652C1357.1 250.56 1348.23 247.671 1340.01 244.985C1342.12 240.591 1344.81 235.301 1348.06 229.116C1351.32 222.85 1354.49 216.746 1357.58 210.806C1360.6 204.865 1362.1 201.61 1362.1 201.04C1364.46 203.237 1367.39 205.028 1370.89 206.411C1374.47 207.713 1379.64 209.3 1386.39 211.172C1393.23 212.962 1398.44 214.59 1402.02 216.055C1409.91 218.984 1418.09 220.449 1426.55 220.449C1431.76 220.449 1436.73 219.92 1441.45 218.862C1446.17 217.723 1448.69 216.787 1449.01 216.055C1449.01 213.939 1445.39 211.864 1438.15 209.829C1430.99 207.713 1422.97 206.086 1414.1 204.946C1404.01 203.807 1393.84 201.366 1383.58 197.622C1373.41 193.797 1364.75 188.223 1357.58 180.898C1350.42 173.574 1346.84 164.541 1346.84 153.799C1346.84 145.579 1348.92 136.994 1353.07 128.042C1357.62 118.032 1364.46 110.789 1373.58 106.313C1382.69 101.756 1393.59 99.4775 1406.29 99.4775C1420.94 99.4775 1436.03 101.553 1451.58 105.703C1467.12 109.854 1488.28 116.283 1515.05 124.99C1514.49 126.211 1512.25 131.419 1508.34 140.615C1504.43 149.73 1501.5 156.403 1499.55 160.635C1497.6 164.867 1496.42 166.982 1496.01 166.982Z" fill="#FFCB05"/>
</g>
<path d="M28.9902 66.0303L22.7128 47.041L0.762971 54.2971L11.1017 74.9745L28.9902 66.0303ZM56.7002 56.9971L50.6435 37.9362L50.6175 37.9445L50.5916 37.9528L56.7002 56.9971ZM84.166 49.1846L89.094 68.5679L89.171 68.5484L89.2478 68.5282L84.166 49.1846ZM111.754 43.2031L115.042 62.931L115.061 62.9278L115.08 62.9245L111.754 43.2031ZM155.699 42.4707L159.455 22.8265L159.327 22.8021L159.2 22.7795L155.699 42.4707ZM171.324 47.5977L162.621 65.6046L162.679 65.6327L162.737 65.6603L171.324 47.5977ZM184.508 57.1191L170.074 70.9636L170.218 71.114L170.366 71.2613L184.508 57.1191ZM194.029 71.0352L212.306 62.9124L212.271 62.8356L212.237 62.7591L194.029 71.0352ZM180.479 111.685L164.479 99.6846L164.456 99.7159L164.433 99.7473L180.479 111.685ZM150.45 146.597L136.423 132.34L136.395 132.368L136.366 132.397L150.45 146.597ZM127.989 167.959L114.872 152.862L105.266 161.208L108.756 173.445L127.989 167.959ZM149.962 244.985L161.663 261.205L173.045 252.995L169.195 239.499L149.962 244.985ZM117.979 268.057L99.103 274.666L107.955 299.949L129.68 284.277L117.979 268.057ZM61.9492 108.022L80.8257 101.414L76.1373 88.0225H61.9492V108.022ZM54.1367 116.445L39.2947 103.04L39.2827 103.053L39.2708 103.066L54.1367 116.445ZM49.9863 120.962V140.962H58.2706L64.1285 135.104L49.9863 120.962ZM47.5449 115.713L28.8005 122.688L28.8712 122.878L28.9457 123.066L47.5449 115.713ZM42.1738 101.187L23.3005 107.804L23.3526 107.953L23.407 108.101L42.1738 101.187ZM34.7275 80.4346L53.5116 73.5673L53.4912 73.5115L53.4705 73.4558L34.7275 80.4346ZM107.97 99.9658L96.1118 83.8603L85.0073 92.0361L88.7003 105.322L107.97 99.9658ZM117.979 135.977L98.7101 141.333L107.973 174.658L132.234 150.005L117.979 135.977ZM146.056 93.0078L141.717 112.532L142.042 112.604L142.37 112.665L146.056 93.0078ZM35.2677 85.0196C45.0663 81.7804 54.2462 78.7879 62.8087 76.0414L50.5916 37.9528C41.9016 40.7401 32.6082 43.7698 22.7128 47.041L35.2677 85.0196ZM62.7569 76.0579C71.062 73.4189 79.8391 70.9209 89.094 68.5679L79.238 29.8012C69.2872 32.3311 59.7538 35.0413 50.6435 37.9362L62.7569 76.0579ZM89.2478 68.5282C98.3247 66.1436 106.92 64.2847 115.042 62.931L108.466 23.4752C99.0098 25.0513 89.213 27.18 79.0842 29.841L89.2478 68.5282ZM115.08 62.9245C120.7 61.9767 126.503 61.4941 132.506 61.4941V21.4941C124.348 21.4941 116.317 22.1509 108.427 23.4817L115.08 62.9245ZM132.506 61.4941C144.68 61.4941 150.586 61.8754 152.199 62.162L159.2 22.7795C153.488 21.764 143.932 21.4941 132.506 21.4941V61.4941ZM151.944 62.1149C155.831 62.8581 159.369 64.0329 162.621 65.6046L180.028 29.5907C173.514 26.4424 166.635 24.1992 159.455 22.8265L151.944 62.1149ZM162.737 65.6603C165.501 66.9745 167.918 68.7152 170.074 70.9636L198.941 43.2746C193.448 37.5478 187.076 32.9409 179.911 29.535L162.737 65.6603ZM170.366 71.2613C172.464 73.3593 174.305 75.9739 175.822 79.3112L212.237 62.7591C208.871 55.3543 204.364 48.6915 198.65 42.977L170.366 71.2613ZM175.753 79.1579C175.679 78.9903 175.607 78.779 175.557 78.5428C175.507 78.3075 175.494 78.1154 175.494 77.9932H215.494C215.494 72.7976 214.436 67.7069 212.306 62.9124L175.753 79.1579ZM175.494 77.9932C175.494 80.4449 173.775 87.2912 164.479 99.6846L196.479 123.685C207.204 109.385 215.494 93.7706 215.494 77.9932H175.494ZM164.433 99.7473C155.014 112.408 145.669 123.243 136.423 132.34L164.477 160.853C175.414 150.093 186.088 137.653 196.526 123.622L164.433 99.7473ZM136.366 132.397C126.4 142.282 119.306 149.009 114.872 152.862L141.107 183.056C146.601 178.283 154.481 170.768 164.534 160.796L136.366 132.397ZM108.756 173.445L130.729 250.472L169.195 239.499L147.222 162.473L108.756 173.445ZM138.261 228.765L106.279 251.837L129.68 284.277L161.663 261.205L138.261 228.765ZM136.856 261.448L80.8257 101.414L43.0727 114.631L99.103 274.666L136.856 261.448ZM61.9492 88.0225C58.3116 88.0225 55.5812 89.0182 54.4158 89.4893C53.0414 90.0449 52.0022 90.6427 51.4083 91.0067C50.2272 91.7306 49.3616 92.4289 48.9751 92.7482C48.1303 93.4461 47.4529 94.1124 47.1052 94.4602C46.3199 95.2454 45.4869 96.1545 44.7251 97.0059L74.5347 123.678C75.1564 122.983 75.4016 122.732 75.3895 122.744C75.369 122.765 75.2899 122.844 75.1635 122.962C75.0509 123.067 74.8016 123.297 74.4503 123.587C74.1808 123.809 73.4131 124.435 72.3108 125.111C71.7564 125.451 70.7518 126.03 69.4073 126.574C68.2718 127.033 65.5665 128.022 61.9492 128.022V88.0225ZM44.7251 97.0059C43.3713 98.5189 41.5637 100.527 39.2947 103.04L68.9788 129.851C71.267 127.318 73.1215 125.257 74.5347 123.678L44.7251 97.0059ZM39.2708 103.066C38.1944 104.262 37.3504 105.192 36.7246 105.873C36.0217 106.638 35.7945 106.87 35.8442 106.82L64.1285 135.104C65.1555 134.077 66.9414 132.115 69.0026 129.825L39.2708 103.066ZM49.9863 100.962C55.7686 100.962 59.7743 103.427 61.3319 104.507C63.1266 105.752 64.3054 107.014 64.8547 107.636C65.9781 108.907 66.6439 110.009 66.8111 110.285C67.2482 111.008 67.4425 111.463 67.3273 111.215C67.1754 110.888 66.7995 110.018 66.1441 108.36L28.9457 123.066C29.6738 124.908 30.3966 126.661 31.0584 128.084C31.3502 128.711 31.8801 129.822 32.5818 130.982C32.8812 131.477 33.6614 132.743 34.8815 134.124C35.4791 134.8 36.7017 136.104 38.5359 137.376C40.1328 138.483 44.1735 140.962 49.9863 140.962V100.962ZM66.2894 108.738C64.9984 105.269 63.2166 100.45 60.9407 94.2724L23.407 108.101C25.6884 114.293 27.4873 119.158 28.8005 122.688L66.2894 108.738ZM61.0472 94.5686C58.8153 88.2037 56.3027 81.2018 53.5116 73.5673L15.9435 87.3019C18.6862 94.8041 21.1378 101.637 23.3005 107.804L61.0472 94.5686ZM53.4705 73.4558C50.7449 66.1358 48.4383 60.205 46.8788 57.086L11.1017 74.9745C11.0897 74.9505 11.2149 75.2053 11.5095 75.8942C11.7844 76.5369 12.1377 77.395 12.5766 78.4968C13.4548 80.7017 14.5868 83.6591 15.9846 87.4133L53.4705 73.4558ZM88.7003 105.322L98.7101 141.333L137.249 130.62L127.239 94.6096L88.7003 105.322ZM132.234 150.005C137.785 144.365 144.419 136.936 152.062 127.88L121.495 102.08C114.164 110.766 108.265 117.335 103.725 121.948L132.234 150.005ZM152.062 127.88C156.188 122.992 159.801 118.178 162.485 113.57C164.836 109.532 168.009 103.129 168.009 95.6934H128.009C128.009 93.6809 128.454 92.4664 128.485 92.3779C128.541 92.2222 128.436 92.5524 127.918 93.442C126.858 95.2625 124.856 98.0985 121.495 102.08L152.062 127.88ZM168.009 95.6934C168.009 92.3259 167.32 87.0834 163.695 82.0989C159.793 76.7334 154.362 74.2167 149.741 73.3504L142.37 112.665C139.052 112.043 134.597 110.096 131.346 105.626C128.372 101.536 128.009 97.5146 128.009 95.6934H168.009ZM150.394 73.4841C145.375 72.3688 140.299 71.7871 135.191 71.7871V111.787C137.245 111.787 139.412 112.019 141.717 112.532L150.394 73.4841ZM135.191 71.7871C120.925 71.7871 107.506 75.4708 96.1118 83.8603L119.828 116.071C123.244 113.556 127.974 111.787 135.191 111.787V71.7871ZM287.169 127.798L277.607 145.364L277.669 145.398L277.731 145.431L287.169 127.798ZM301.207 140.371L284.645 151.582L284.744 151.729L284.846 151.875L301.207 140.371ZM309.142 158.071L289.725 162.866L289.76 163.008L289.797 163.149L309.142 158.071ZM310.24 195.425L290.554 191.899L290.528 192.042L290.504 192.185L310.24 195.425ZM300.719 222.036L284.275 210.652L284.189 210.776L284.105 210.901L300.719 222.036ZM266.295 255.239L275.888 272.788L275.978 272.739L276.067 272.689L266.295 255.239ZM248.106 262.563L243.133 243.192L242.977 243.232L242.822 243.274L248.106 262.563ZM210.631 261.709L217.249 242.836L217.177 242.81L217.105 242.786L210.631 261.709ZM194.762 253.286L181.975 268.665L182.138 268.8L182.303 268.932L194.762 253.286ZM177.794 228.994L159.204 236.371L159.214 236.397L159.224 236.422L177.794 228.994ZM188.658 149.038L203.237 162.73L203.245 162.722L203.253 162.713L188.658 149.038ZM218.688 125.723L227.688 143.583L227.744 143.555L227.8 143.526L218.688 125.723ZM268.736 120.229L263.383 139.5L263.508 139.534L263.633 139.567L268.736 120.229ZM279.967 148.306L299.197 142.811L260.449 143.94L279.967 148.306ZM270.934 164.663L256.669 150.644L256.607 150.708L256.546 150.771L270.934 164.663ZM251.646 170.034L239.153 185.652L239.83 186.194L240.552 186.675L251.646 170.034ZM251.646 148.672L235.176 137.326L235.09 137.451L235.005 137.578L251.646 148.672ZM263.487 140.005L270.818 158.613L263.487 120.005V140.005ZM247.862 143.057L240.383 124.508L240.33 124.529L240.278 124.551L247.862 143.057ZM235.045 150.991L248.311 165.958L248.405 165.875L248.498 165.79L235.045 150.991ZM226.378 161.855L208.78 152.352L208.745 152.417L208.711 152.481L226.378 161.855ZM233.702 192.007L222.927 208.856L222.939 208.864L222.951 208.871L233.702 192.007ZM267.638 192.495L280.631 207.7L280.71 207.632L280.788 207.564L267.638 192.495ZM277.892 177.603L296.513 184.9L296.529 184.858L296.546 184.815L277.892 177.603ZM277.731 145.431C280.726 147.034 282.931 149.051 284.645 151.582L317.769 129.16C312.321 121.112 305.168 114.747 296.606 110.165L277.731 145.431ZM284.846 151.875C286.99 154.924 288.651 158.519 289.725 162.866L328.558 153.277C326.376 144.44 322.748 136.235 317.568 128.868L284.846 151.875ZM289.797 163.149C291.049 167.918 291.705 173.002 291.705 178.457H331.705C331.705 169.752 330.652 161.245 328.486 152.993L289.797 163.149ZM291.705 178.457C291.705 183.202 291.31 187.675 290.554 191.899L329.927 198.951C331.124 192.27 331.705 185.431 331.705 178.457H291.705ZM290.504 192.185C289.777 196.614 288.792 200.434 287.621 203.713L325.291 217.166C327.375 211.33 328.913 205.141 329.976 198.665L290.504 192.185ZM287.621 203.713C286.441 207.017 285.26 209.229 284.275 210.652L317.163 233.42C320.572 228.495 323.216 222.977 325.291 217.166L287.621 203.713ZM284.105 210.901C279.693 217.484 275.141 222.895 270.507 227.271L297.972 256.352C305.056 249.661 311.49 241.888 317.333 233.171L284.105 210.901ZM270.507 227.271C265.666 231.843 260.994 235.285 256.523 237.789L276.067 272.689C283.803 268.357 291.094 262.848 297.972 256.352L270.507 227.271ZM256.701 237.69C251.886 240.323 247.368 242.104 243.133 243.192L253.08 281.935C260.889 279.93 268.497 276.829 275.888 272.788L256.701 237.69ZM242.822 243.274C238.515 244.454 234.391 245.005 230.406 245.005V285.005C238.14 285.005 245.817 283.928 253.391 281.853L242.822 243.274ZM230.406 245.005C225.648 245.005 221.3 244.256 217.249 242.836L204.013 280.582C212.494 283.556 221.33 285.005 230.406 285.005V245.005ZM217.105 242.786C212.74 241.292 209.556 239.5 207.22 237.641L182.303 268.932C188.757 274.071 196.152 277.894 204.157 280.632L217.105 242.786ZM207.548 237.908C203.254 234.337 199.399 229.156 196.363 221.566L159.224 236.422C164.327 249.178 171.784 260.191 181.975 268.665L207.548 237.908ZM196.384 221.617C193.277 213.788 191.69 205.475 191.69 196.523H151.69C151.69 210.358 154.173 223.692 159.204 236.371L196.384 221.617ZM191.69 196.523C191.69 180.986 196.044 170.389 203.237 162.73L174.08 135.346C158.649 151.776 151.69 172.835 151.69 196.523H191.69ZM203.253 162.713C211.679 153.72 219.858 147.529 227.688 143.583L209.687 107.862C196.846 114.333 185.006 123.686 174.064 135.363L203.253 162.713ZM227.8 143.526C235.524 139.573 242.998 137.788 250.426 137.788V97.7881C236.206 97.7881 222.521 101.293 209.575 107.919L227.8 143.526ZM250.426 137.788C255.044 137.788 259.342 138.377 263.383 139.5L274.089 100.959C266.412 98.8265 258.503 97.7881 250.426 97.7881V137.788ZM263.633 139.567C267.659 140.63 272.307 142.479 277.607 145.364L296.73 110.231C289.173 106.118 281.532 102.922 273.839 100.891L263.633 139.567ZM260.449 143.94C259.918 146.314 258.811 148.465 256.669 150.644L285.198 178.682C292.333 171.421 297.249 162.667 299.484 152.671L260.449 143.94ZM256.546 150.771C255.958 151.38 255.503 151.777 255.193 152.02C254.884 152.262 254.76 152.319 254.831 152.282C254.907 152.241 255.192 152.102 255.675 151.973C256.169 151.842 256.793 151.743 257.506 151.743V191.743C269.511 191.743 278.845 185.263 285.322 178.555L256.546 150.771ZM257.506 151.743C258.152 151.743 259.011 151.829 259.993 152.116C260.986 152.406 261.921 152.847 262.74 153.393L240.552 186.675C245.779 190.16 251.649 191.743 257.506 191.743V151.743ZM264.14 154.417C266.257 156.11 267.301 158.066 267.735 159.279C268.11 160.331 267.984 160.67 267.984 159.78H227.984C227.984 167.299 229.81 178.178 239.153 185.652L264.14 154.417ZM267.984 159.78C267.984 159.937 267.971 160.085 267.95 160.216C267.929 160.345 267.904 160.428 267.894 160.457C267.874 160.519 267.939 160.289 268.287 159.766L235.005 137.578C230.767 143.936 227.984 151.435 227.984 159.78H267.984ZM268.117 160.018C267.798 160.481 268.055 159.701 270.818 158.613L256.157 121.397C248.177 124.54 240.541 129.539 235.176 137.326L268.117 160.018ZM263.487 120.005C255.519 120.005 247.774 121.527 240.383 124.508L255.342 161.605C258.042 160.517 260.713 160.005 263.487 160.005V120.005ZM240.278 124.551C233.389 127.374 227.075 131.208 221.591 136.192L248.498 165.79C250.177 164.264 252.407 162.809 255.447 161.563L240.278 124.551ZM221.779 136.024C216.507 140.697 212.129 146.151 208.78 152.352L243.976 171.358C245.022 169.422 246.421 167.633 248.311 165.958L221.779 136.024ZM208.711 152.481C205.234 159.035 203.204 166.257 203.204 173.94H243.204C243.204 173.485 243.29 172.652 244.045 171.23L208.711 152.481ZM203.204 173.94C203.204 189.087 210.849 201.132 222.927 208.856L244.478 175.158C243.147 174.307 242.99 173.86 243.121 174.085C243.174 174.175 243.213 174.278 243.228 174.34C243.242 174.392 243.204 174.281 243.204 173.94H203.204ZM222.951 208.871C231.674 214.432 241.555 218.232 252.257 218.232V178.232C251.24 178.232 248.751 177.882 244.453 175.142L222.951 208.871ZM252.257 218.232C262.897 218.232 272.608 214.555 280.631 207.7L254.645 177.29C253.715 178.085 253.173 178.232 252.257 178.232V218.232ZM280.788 207.564C287.896 201.361 293.086 193.643 296.513 184.9L259.27 170.305C257.977 173.606 256.331 175.817 254.487 177.427L280.788 207.564ZM296.546 184.815C299.705 176.645 301.432 168.182 301.432 159.536H261.432C261.432 162.772 260.798 166.353 259.238 170.39L296.546 184.815ZM301.432 159.536C301.432 153.872 300.752 148.252 299.197 142.811L260.736 153.8C261.135 155.195 261.432 157.062 261.432 159.536H301.432ZM291.441 56.0205L283.708 37.5762L273.904 41.6871L271.827 52.1135L291.441 56.0205ZM353.453 30.0195L373.412 28.7408L371.617 0.71678L345.72 11.5752L353.453 30.0195ZM362.486 171.011L342.527 172.29L344.536 203.649L372.096 188.551L362.486 171.011ZM413.512 143.057L416.474 123.277L409.811 122.279L403.902 125.516L413.512 143.057ZM466.49 150.991L478.66 166.862L516.052 138.191L469.453 131.212L466.49 150.991ZM397.398 203.97L385.229 188.099L364.359 204.101L385.355 219.937L397.398 203.97ZM462.462 253.042L482.426 251.847L481.875 242.633L474.505 237.074L462.462 253.042ZM465.392 301.992L453.718 318.232L487.869 342.78L485.356 300.797L465.392 301.992ZM369.444 233.022L381.118 216.783L347.356 192.514L349.47 234.039L369.444 233.022ZM372.496 292.959L372.874 312.955L393.52 312.565L392.47 291.942L372.496 292.959ZM314.391 294.058L294.417 295.092L295.419 314.42L314.769 314.054L314.391 294.058ZM303.404 82.0215L323.378 80.9866L322.151 57.3153L299.024 62.5072L303.404 82.0215ZM285.46 86.0498L265.845 82.1428L259.839 112.299L289.841 105.564L285.46 86.0498ZM299.175 74.4648L361.187 48.4638L345.72 11.5752L283.708 37.5762L299.175 74.4648ZM333.494 31.2983L342.527 172.29L382.445 169.732L373.412 28.7408L333.494 31.2983ZM372.096 188.551L423.121 160.597L403.902 125.516L352.877 153.471L372.096 188.551ZM410.549 162.836L463.528 170.771L469.453 131.212L416.474 123.277L410.549 162.836ZM454.32 135.12L385.229 188.099L409.568 219.841L478.66 166.862L454.32 135.12ZM385.355 219.937L450.419 269.01L474.505 237.074L409.442 188.002L385.355 219.937ZM442.498 254.237L445.427 303.187L485.356 300.797L482.426 251.847L442.498 254.237ZM477.065 285.752L381.118 216.783L357.771 249.262L453.718 318.232L477.065 285.752ZM349.47 234.039L352.522 293.976L392.47 291.942L389.418 232.005L349.47 234.039ZM372.118 272.963L314.013 274.061L314.769 314.054L372.874 312.955L372.118 272.963ZM334.364 293.023L323.378 80.9866L283.431 83.0564L294.417 295.092L334.364 293.023ZM299.024 62.5072L281.079 66.5355L289.841 105.564L307.785 101.536L299.024 62.5072ZM305.075 89.9568L311.056 59.9275L271.827 52.1135L265.845 82.1428L305.075 89.9568ZM551.451 192.495L566.855 179.738L548.339 157.381L534.044 182.646L551.451 192.495ZM580.87 228.018L599.775 234.544L603.444 223.918L596.274 215.261L580.87 228.018ZM564.024 246.816L553.217 229.988L553.182 230.011L553.147 230.033L564.024 246.816ZM532.53 260.244L527.377 240.919L527.3 240.94L527.224 240.961L532.53 260.244ZM467.345 260.977L460.91 279.913L460.938 279.923L460.966 279.932L467.345 260.977ZM447.936 248.037L463.639 235.651L463.615 235.621L463.59 235.59L447.936 248.037ZM442.687 173.94L423.97 166.89L423.957 166.925L423.944 166.96L442.687 173.94ZM456.847 149.038L443.108 134.503L443.087 134.524L443.065 134.544L456.847 149.038ZM476.134 135L466.701 117.364L466.658 117.387L466.615 117.411L476.134 135ZM497.862 126.577L493.012 107.174L497.862 126.577ZM550.353 128.774L543.584 147.594L543.683 147.63L543.782 147.664L550.353 128.774ZM574.889 143.057L590.217 155.904L602.651 141.069L588.23 128.156L574.889 143.057ZM507.872 223.013L492.544 210.165L465.013 243.013H507.872V223.013ZM524.718 219.351L533.099 237.51L533.16 237.482L533.221 237.453L524.718 219.351ZM539.488 208.73L553.757 222.745L553.819 222.682L553.881 222.618L539.488 208.73ZM517.638 164.053L533.195 176.621L548.689 157.443L526.727 146.237L517.638 164.053ZM492.613 163.687L484.691 145.322L484.625 145.351L484.559 145.38L492.613 163.687ZM483.946 170.034L499.755 182.286L500.052 181.902L500.331 181.503L483.946 170.034ZM477.232 199.697L457.694 203.971L477.232 199.697ZM480.162 210.439L461.024 216.249L471.992 252.377L495.719 223.008L480.162 210.439ZM454.894 76.04L445.209 58.5414L426.571 68.8568L438.04 86.8078L454.894 76.04ZM519.957 40.0293L536.722 29.1228L526.566 13.5125L510.272 22.5307L519.957 40.0293ZM547.911 82.998L551.646 102.646L580.932 97.0788L564.676 72.0916L547.911 82.998ZM468.932 98.0127L452.078 108.78L459.367 120.189L472.667 117.661L468.932 98.0127ZM536.048 205.252L565.467 240.774L596.274 215.261L566.855 179.738L536.048 205.252ZM561.965 221.491C561.609 222.522 559.981 225.644 553.217 229.988L574.832 263.645C585.809 256.595 595.411 247.185 599.775 234.544L561.965 221.491ZM553.147 230.033C546.44 234.38 537.959 238.098 527.377 240.919L537.684 279.569C551.516 275.88 564.03 270.646 574.902 263.599L553.147 230.033ZM527.224 240.961C516.763 243.84 506.42 245.249 496.153 245.249V285.249C510.138 285.249 524.047 283.322 537.836 279.527L527.224 240.961ZM496.153 245.249C487.154 245.249 479.763 244.054 473.724 242.021L460.966 279.932C471.853 283.596 483.669 285.249 496.153 285.249V245.249ZM473.779 242.04C468.304 240.179 465.356 237.829 463.639 235.651L432.232 260.423C439.629 269.801 449.621 276.077 460.91 279.913L473.779 242.04ZM463.59 235.59C459.085 229.924 456.095 221.913 456.095 209.951H416.095C416.095 228.914 420.998 246.293 432.281 260.484L463.59 235.59ZM456.095 209.951C456.095 200.202 457.839 190.559 461.429 180.92L423.944 166.96C418.745 180.922 416.095 195.286 416.095 209.951H456.095ZM461.403 180.991C465.573 169.92 469.001 165.079 470.628 163.532L443.065 134.544C434.764 142.438 428.752 154.198 423.97 166.89L461.403 180.991ZM470.585 163.573C475.308 159.108 480.328 155.471 485.653 152.589L466.615 117.411C458.105 122.016 450.266 127.738 443.108 134.503L470.585 163.573ZM485.567 152.636C491.158 149.645 496.865 147.442 502.713 145.98L493.012 107.174C483.885 109.456 475.107 112.868 466.701 117.364L485.567 152.636ZM502.713 145.98C508.578 144.514 514.637 143.77 520.934 143.77V103.77C511.442 103.77 502.121 104.897 493.012 107.174L502.713 145.98ZM520.934 143.77C529.074 143.77 536.581 145.076 543.584 147.594L557.121 109.955C545.569 105.8 533.464 103.77 520.934 103.77V143.77ZM543.782 147.664C550.781 150.099 556.627 153.551 561.548 157.957L588.23 128.156C579.153 120.03 568.641 113.96 556.923 109.884L543.782 147.664ZM559.561 130.209L492.544 210.165L523.2 235.86L590.217 155.904L559.561 130.209ZM507.872 243.013C516.648 243.013 525.129 241.188 533.099 237.51L516.337 201.191C513.727 202.396 510.978 203.013 507.872 203.013V243.013ZM533.221 237.453C540.9 233.846 547.745 228.866 553.757 222.745L525.219 194.716C522.28 197.709 519.277 199.81 516.215 201.248L533.221 237.453ZM553.881 222.618C559.64 216.649 564.612 209.848 568.858 202.344L534.044 182.646C531.291 187.512 528.288 191.535 525.096 194.843L553.881 222.618ZM526.727 146.237C520.151 142.882 512.985 141.001 505.431 141.001V181.001C506.177 181.001 507.149 181.154 508.548 181.868L526.727 146.237ZM505.431 141.001C498.233 141.001 491.27 142.484 484.691 145.322L500.535 182.051C502.257 181.308 503.839 181.001 505.431 181.001V141.001ZM484.559 145.38C478.674 147.969 472.158 151.998 467.562 158.565L500.331 181.503C499.705 182.398 499.19 182.768 499.212 182.752C499.217 182.748 499.327 182.668 499.573 182.53C499.82 182.392 500.177 182.209 500.668 181.993L484.559 145.38ZM468.138 157.783C460.533 167.595 456.378 179.019 456.378 191.519H496.378C496.378 188.393 497.268 185.494 499.755 182.286L468.138 157.783ZM456.378 191.519C456.378 195.706 456.797 199.871 457.694 203.971L496.77 195.423C496.528 194.315 496.378 193.027 496.378 191.519H456.378ZM457.694 203.971C458.432 207.343 459.586 211.512 461.024 216.249L499.3 204.63C497.971 200.252 497.172 197.26 496.77 195.423L457.694 203.971ZM495.719 223.008L533.195 176.621L502.08 151.484L464.605 197.871L495.719 223.008ZM464.579 93.5386L529.642 57.5279L510.272 22.5307L445.209 58.5414L464.579 93.5386ZM503.193 50.9358L531.147 93.9045L564.676 72.0916L536.722 29.1228L503.193 50.9358ZM544.176 63.3499L465.196 78.3646L472.667 117.661L551.646 102.646L544.176 63.3499ZM485.786 87.2449L471.747 65.2723L438.04 86.8078L452.078 108.78L485.786 87.2449ZM565.855 129.995L563.987 110.083L547.408 111.638L545.934 128.224L565.855 129.995ZM682.921 119.009L702.82 121.011L705.254 96.825L681.052 99.0963L682.921 119.009ZM678.893 159.048L679.566 179.037L697.042 178.448L698.792 161.05L678.893 159.048ZM562.926 162.954L543.004 161.183L541.002 183.704L563.599 182.943L562.926 162.954ZM567.724 149.908L684.79 138.921L681.052 99.0963L563.987 110.083L567.724 149.908ZM663.021 117.007L658.993 157.046L698.792 161.05L702.82 121.011L663.021 117.007ZM678.219 139.059L562.252 142.965L563.599 182.943L679.566 179.037L678.219 139.059ZM582.847 164.725L585.777 131.766L545.934 128.224L543.004 161.183L582.847 164.725ZM789.488 98.9893L787.879 79.0541L768.691 80.6028L769.506 99.8367L789.488 98.9893ZM796.446 263.052V283.052H817.312L816.428 262.204L796.446 263.052ZM770.445 262.563L771.314 242.582L771.206 242.578L771.097 242.574L770.445 262.563ZM750.06 260.977L752.703 241.152L752.573 241.135L752.442 241.119L750.06 260.977ZM736.51 258.047L716.536 259.071L717.182 271.66L728.817 276.508L736.51 258.047ZM728.453 100.942L748.427 99.9181L747.44 80.666L728.164 80.9445L728.453 100.942ZM652.403 102.041L632.409 101.584L631.934 122.339L652.692 122.039L652.403 102.041ZM653.502 53.9453L652.177 33.9892L633.925 35.2007L633.507 53.4886L653.502 53.9453ZM848.448 41.0059L868.415 39.8557L867.255 19.7136L847.124 21.0498L848.448 41.0059ZM851.5 93.9844L853.109 113.92L872.591 112.347L871.467 92.8342L851.5 93.9844ZM769.506 99.8367L776.464 263.899L816.428 262.204L809.47 98.1418L769.506 99.8367ZM796.446 243.052H789V283.052H796.446V243.052ZM789 243.052C784.516 243.052 778.647 242.901 771.314 242.582L769.577 282.545C777.218 282.877 783.718 283.052 789 283.052V243.052ZM771.097 242.574C764.14 242.347 758.023 241.861 752.703 241.152L747.416 280.801C754.303 281.719 761.777 282.291 769.793 282.553L771.097 242.574ZM752.442 241.119C749.822 240.805 747.809 240.468 746.321 240.147C744.765 239.81 744.168 239.571 744.202 239.585L728.817 276.508C734.367 278.821 741.116 280.047 747.677 280.834L752.442 241.119ZM756.484 257.023L748.427 99.9181L708.479 101.967L716.536 259.071L756.484 257.023ZM728.164 80.9445L652.114 82.0431L652.692 122.039L728.742 120.94L728.164 80.9445ZM672.398 102.498L673.497 54.402L633.507 53.4886L632.409 101.584L672.398 102.498ZM654.827 73.9014L849.773 60.9619L847.124 21.0498L652.177 33.9892L654.827 73.9014ZM828.481 42.156L831.533 95.1345L871.467 92.8342L868.415 39.8557L828.481 42.156ZM849.891 74.0492L787.879 79.0541L791.097 118.924L853.109 113.92L849.891 74.0492ZM926.451 192.495L941.855 179.738L923.339 157.381L909.044 182.646L926.451 192.495ZM955.87 228.018L974.775 234.544L978.444 223.918L971.274 215.261L955.87 228.018ZM939.024 246.816L928.217 229.988L928.182 230.011L928.147 230.033L939.024 246.816ZM907.53 260.244L902.377 240.919L902.3 240.94L902.224 240.961L907.53 260.244ZM842.345 260.977L835.91 279.913L835.938 279.923L835.966 279.932L842.345 260.977ZM822.936 248.037L838.639 235.651L838.615 235.621L838.59 235.59L822.936 248.037ZM817.687 173.94L798.97 166.89L798.957 166.925L798.944 166.96L817.687 173.94ZM831.847 149.038L818.108 134.503L818.087 134.524L818.065 134.544L831.847 149.038ZM851.134 135L841.701 117.364L841.658 117.387L841.615 117.411L851.134 135ZM872.862 126.577L868.012 107.174L872.862 126.577ZM925.353 128.774L918.584 147.594L918.683 147.63L918.782 147.664L925.353 128.774ZM949.889 143.057L965.217 155.904L977.651 141.069L963.23 128.156L949.889 143.057ZM882.872 223.013L867.544 210.165L840.013 243.013H882.872V223.013ZM899.718 219.351L908.099 237.51L908.16 237.482L908.221 237.453L899.718 219.351ZM914.488 208.73L928.757 222.745L928.819 222.682L928.881 222.618L914.488 208.73ZM892.638 164.053L908.195 176.621L923.689 157.443L901.727 146.237L892.638 164.053ZM867.613 163.687L859.691 145.322L859.625 145.351L859.559 145.38L867.613 163.687ZM858.946 170.034L874.755 182.286L875.052 181.902L875.331 181.503L858.946 170.034ZM852.232 199.697L832.694 203.971L852.232 199.697ZM855.162 210.439L836.024 216.249L846.992 252.377L870.719 223.008L855.162 210.439ZM911.048 205.252L940.467 240.774L971.274 215.261L941.855 179.738L911.048 205.252ZM936.965 221.491C936.609 222.522 934.981 225.644 928.217 229.988L949.832 263.645C960.809 256.595 970.411 247.185 974.775 234.544L936.965 221.491ZM928.147 230.033C921.44 234.38 912.959 238.098 902.377 240.919L912.684 279.569C926.516 275.88 939.03 270.646 949.902 263.599L928.147 230.033ZM902.224 240.961C891.763 243.84 881.42 245.249 871.153 245.249V285.249C885.138 285.249 899.047 283.322 912.836 279.527L902.224 240.961ZM871.153 245.249C862.154 245.249 854.763 244.054 848.724 242.021L835.966 279.932C846.853 283.596 858.669 285.249 871.153 285.249V245.249ZM848.779 242.04C843.304 240.179 840.356 237.829 838.639 235.651L807.232 260.423C814.629 269.801 824.621 276.077 835.91 279.913L848.779 242.04ZM838.59 235.59C834.085 229.924 831.095 221.913 831.095 209.951H791.095C791.095 228.914 795.998 246.293 807.281 260.484L838.59 235.59ZM831.095 209.951C831.095 200.202 832.839 190.559 836.429 180.92L798.944 166.96C793.745 180.922 791.095 195.286 791.095 209.951H831.095ZM836.403 180.991C840.573 169.92 844.001 165.079 845.628 163.532L818.065 134.544C809.764 142.438 803.752 154.198 798.97 166.89L836.403 180.991ZM845.585 163.573C850.308 159.108 855.328 155.471 860.653 152.589L841.615 117.411C833.105 122.016 825.266 127.738 818.108 134.503L845.585 163.573ZM860.567 152.636C866.158 149.645 871.865 147.442 877.713 145.98L868.012 107.174C858.885 109.456 850.107 112.868 841.701 117.364L860.567 152.636ZM877.713 145.98C883.578 144.514 889.637 143.77 895.934 143.77V103.77C886.442 103.77 877.121 104.897 868.012 107.174L877.713 145.98ZM895.934 143.77C904.074 143.77 911.581 145.076 918.584 147.594L932.121 109.955C920.569 105.8 908.464 103.77 895.934 103.77V143.77ZM918.782 147.664C925.781 150.099 931.627 153.551 936.548 157.957L963.23 128.156C954.153 120.03 943.641 113.96 931.923 109.884L918.782 147.664ZM934.561 130.209L867.544 210.165L898.2 235.86L965.217 155.904L934.561 130.209ZM882.872 243.013C891.648 243.013 900.129 241.188 908.099 237.51L891.337 201.191C888.727 202.396 885.978 203.013 882.872 203.013V243.013ZM908.221 237.453C915.9 233.846 922.745 228.866 928.757 222.745L900.219 194.716C897.28 197.709 894.277 199.81 891.215 201.248L908.221 237.453ZM928.881 222.618C934.64 216.649 939.612 209.848 943.858 202.344L909.044 182.646C906.291 187.512 903.288 191.535 900.096 194.843L928.881 222.618ZM901.727 146.237C895.151 142.882 887.985 141.001 880.431 141.001V181.001C881.177 181.001 882.149 181.154 883.548 181.868L901.727 146.237ZM880.431 141.001C873.233 141.001 866.27 142.484 859.691 145.322L875.535 182.051C877.257 181.308 878.839 181.001 880.431 181.001V141.001ZM859.559 145.38C853.674 147.969 847.158 151.998 842.562 158.565L875.331 181.503C874.705 182.398 874.19 182.768 874.212 182.752C874.217 182.748 874.327 182.668 874.573 182.53C874.82 182.392 875.177 182.209 875.668 181.993L859.559 145.38ZM843.138 157.783C835.533 167.595 831.378 179.019 831.378 191.519H871.378C871.378 188.393 872.268 185.494 874.755 182.286L843.138 157.783ZM831.378 191.519C831.378 195.706 831.797 199.871 832.694 203.971L871.77 195.423C871.528 194.315 871.378 193.027 871.378 191.519H831.378ZM832.694 203.971C833.432 207.343 834.586 211.512 836.024 216.249L874.3 204.63C872.971 200.252 872.172 197.26 871.77 195.423L832.694 203.971ZM870.719 223.008L908.195 176.621L877.08 151.484L839.605 197.871L870.719 223.008ZM1047.46 140.493L1058.55 157.134L1044.93 120.653L1047.46 140.493ZM1034.15 144.766L1024.95 127.011L1024.88 127.046L1024.81 127.082L1034.15 144.766ZM1015.72 163.076L997.676 154.447L997.635 154.533L997.595 154.618L1015.72 163.076ZM1023.65 192.007L1034.8 175.4L1034.75 175.368L1034.7 175.336L1023.65 192.007ZM1047.46 197.744L1050.5 217.512L1067.46 214.903V197.744H1047.46ZM1047.46 171.743H1067.46V151.743H1047.46V171.743ZM1041.6 170.034L1029.1 185.652L1029.78 186.194L1030.5 186.675L1041.6 170.034ZM1048.43 119.009L1034.29 133.151L1044.05 142.91L1056.64 137.249L1048.43 119.009ZM1099.46 96.0596L1119.46 95.7734L1119.02 65.3315L1091.26 77.8195L1099.46 96.0596ZM1100.44 164.297L1080.44 164.583L1080.46 165.969L1080.67 167.338L1100.44 164.297ZM1100.92 189.199L1081.12 186.371L1080.9 187.973L1080.93 189.591L1100.92 189.199ZM1102.39 264.028L1103.45 284L1122.76 282.97L1122.38 263.637L1102.39 264.028ZM1047.46 266.958H1027.46V288.053L1048.52 286.93L1047.46 266.958ZM1047.46 259.512H1067.46V229.721L1039.88 241.001L1047.46 259.512ZM1000.58 261.831L994.031 280.728L994.07 280.741L994.108 280.754L1000.58 261.831ZM984.713 253.286L971.926 268.665L972.071 268.785L972.219 268.904L984.713 253.286ZM967.745 228.994L949.155 236.371L949.165 236.397L949.176 236.422L967.745 228.994ZM978.609 149.038L964.127 135.245L964.079 135.295L964.031 135.346L978.609 149.038ZM1008.76 125.723L999.705 107.89L999.677 107.905L999.649 107.919L1008.76 125.723ZM1047.46 118.032L1061.6 103.89L1056.59 98.8833L1049.55 98.1421L1047.46 118.032ZM1044.93 120.653C1037.91 121.547 1031.22 123.755 1024.95 127.011L1043.36 162.521C1045.87 161.219 1048.05 160.578 1049.98 160.333L1044.93 120.653ZM1024.81 127.082C1018.93 130.188 1013.56 134.021 1008.9 138.68L1037.19 166.964C1038.71 165.438 1040.75 163.901 1043.49 162.449L1024.81 127.082ZM1008.9 138.68C1004.29 143.289 1000.5 148.55 997.676 154.447L1033.76 171.705C1034.52 170.116 1035.61 168.541 1037.19 166.964L1008.9 138.68ZM997.595 154.618C994.81 160.587 993.155 167.082 993.155 173.94H1033.16C1033.16 173.637 1033.21 172.889 1033.84 171.534L997.595 154.618ZM993.155 173.94C993.155 189.039 1000.89 200.914 1012.6 208.678L1034.7 175.336C1033.25 174.37 1032.99 173.825 1033.07 173.963C1033.1 174.018 1033.14 174.109 1033.16 174.192C1033.18 174.267 1033.16 174.204 1033.16 173.94H993.155ZM1012.51 208.614C1021.41 214.584 1031.49 218.232 1042.45 218.232V178.232C1040.72 178.232 1038.27 177.73 1034.8 175.4L1012.51 208.614ZM1042.45 218.232C1045.17 218.232 1048 217.895 1050.5 217.512L1044.42 177.977C1043.63 178.098 1043.06 178.168 1042.68 178.205C1042.27 178.245 1042.23 178.232 1042.45 178.232V218.232ZM1067.46 197.744V171.743H1027.46V197.744H1067.46ZM1047.46 151.743C1048.1 151.743 1048.96 151.829 1049.94 152.116C1050.94 152.406 1051.87 152.847 1052.69 153.393L1030.5 186.675C1035.73 190.16 1041.6 191.743 1047.46 191.743V151.743ZM1054.09 154.417C1056.62 156.438 1057.58 158.685 1057.87 159.561C1058.11 160.321 1057.94 160.249 1057.94 158.804H1017.94C1017.94 165.953 1019.28 177.794 1029.1 185.652L1054.09 154.417ZM1057.94 158.804C1057.94 158.137 1058 157.746 1058.04 157.572C1058.08 157.408 1058.1 157.398 1058.06 157.472C1058.02 157.548 1057.98 157.588 1058 157.569C1058.03 157.543 1058.18 157.384 1058.55 157.134L1036.36 123.852C1024.16 131.99 1017.94 144.505 1017.94 158.804H1057.94ZM1056.64 137.249L1107.66 114.3L1091.26 77.8195L1040.23 100.769L1056.64 137.249ZM1079.46 96.3458L1080.44 164.583L1120.43 164.011L1119.46 95.7734L1079.46 96.3458ZM1080.67 167.338C1081.13 170.348 1081.41 174.104 1081.41 178.701H1121.41C1121.41 172.556 1121.04 166.709 1120.2 161.256L1080.67 167.338ZM1081.41 178.701C1081.41 183.242 1081.24 185.565 1081.12 186.371L1120.72 192.028C1121.26 188.276 1121.41 183.601 1121.41 178.701H1081.41ZM1080.93 189.591L1082.39 264.42L1122.38 263.637L1120.92 188.808L1080.93 189.591ZM1101.32 244.057L1046.39 246.986L1048.52 286.93L1103.45 284L1101.32 244.057ZM1067.46 266.958V259.512H1027.46V266.958H1067.46ZM1039.88 241.001C1033.19 243.741 1026.72 245.005 1020.36 245.005V285.005C1032.23 285.005 1043.82 282.607 1055.03 278.023L1039.88 241.001ZM1020.36 245.005C1015.41 245.005 1011.01 244.262 1007.06 242.908L994.108 280.754C1002.52 283.632 1011.31 285.005 1020.36 285.005V245.005ZM1007.13 242.934C1002.91 241.471 999.692 239.657 997.207 237.669L972.219 268.904C978.685 274.077 986.045 277.959 994.031 280.728L1007.13 242.934ZM997.5 237.908C993.205 234.337 989.35 229.156 986.315 221.566L949.176 236.422C954.278 249.178 961.735 260.191 971.926 268.665L997.5 237.908ZM986.335 221.617C983.228 213.788 981.642 205.475 981.642 196.523H941.642C941.642 210.358 944.124 223.692 949.155 236.371L986.335 221.617ZM981.642 196.523C981.642 180.986 985.995 170.389 993.188 162.73L964.031 135.346C948.6 151.776 941.642 172.835 941.642 196.523H981.642ZM993.092 162.831C1001.64 153.861 1009.93 147.594 1017.87 143.526L999.649 107.919C986.925 114.431 975.115 123.707 964.127 135.245L993.092 162.831ZM1017.82 143.555C1025.65 139.575 1033.19 137.788 1040.62 137.788V97.7881C1026.4 97.7881 1012.7 101.291 999.705 107.89L1017.82 143.555ZM1040.62 137.788C1043.45 137.788 1044.89 137.872 1045.36 137.922L1049.55 98.1421C1046.94 97.8668 1043.81 97.7881 1040.62 97.7881V137.788ZM1033.31 132.174L1034.29 133.151L1062.58 104.867L1061.6 103.89L1033.31 132.174ZM1229.38 119.985L1219.36 137.298L1227 141.716L1235.41 139.053L1229.38 119.985ZM1297.37 114.98L1307.31 97.6276L1307.29 97.6142L1307.27 97.6008L1297.37 114.98ZM1336.43 164.053L1316.98 168.685L1317 168.784L1317.02 168.882L1336.43 164.053ZM1341.56 231.069L1361.42 233.444L1361.42 233.431L1361.42 233.419L1341.56 231.069ZM1337.41 260L1338.6 279.964L1354.64 279.005L1357.16 263.133L1337.41 260ZM1286.38 263.052L1266.4 262.252L1265.52 284.336L1287.58 283.016L1286.38 263.052ZM1273.44 164.053L1292.06 156.742L1292.01 156.618L1291.96 156.495L1273.44 164.053ZM1259.65 158.804L1240.53 164.685L1240.87 165.775L1241.33 166.82L1259.65 158.804ZM1261.36 164.053L1280.77 159.223L1280.74 159.128L1280.72 159.033L1261.36 164.053ZM1266.73 228.994L1286.59 231.386L1286.59 231.372L1286.59 231.358L1266.73 228.994ZM1262.46 260L1263.65 279.964L1279.89 278.993L1282.25 262.893L1262.46 260ZM1211.43 263.052L1191.45 262.252L1190.56 284.336L1212.63 283.016L1211.43 263.052ZM1198.37 164.053L1216.95 156.66L1216.93 156.593L1216.9 156.525L1198.37 164.053ZM1195.93 155.874L1176.3 159.691L1176.31 159.744L1176.32 159.796L1195.93 155.874ZM1186.9 169.058L1168.59 161.003L1168.55 161.091L1168.51 161.179L1186.9 169.058ZM1183.84 178.823L1164.32 174.485L1164.27 174.692L1164.23 174.901L1183.84 178.823ZM1182.13 191.152L1162.21 189.374L1162.2 189.55L1162.19 189.727L1182.13 191.152ZM1183.84 254.995L1186.15 274.862L1205.24 272.645L1203.79 253.48L1183.84 254.995ZM1123.91 261.953L1104.09 264.655L1106.74 284.08L1126.21 281.82L1123.91 261.953ZM1119.27 220.938L1099.31 222.268L1099.32 222.411L1099.33 222.554L1119.27 220.938ZM1119.15 188.223L1139.11 189.364L1139.16 188.485L1139.14 187.605L1119.15 188.223ZM1116.95 117.056L1114.43 97.2156L1096.4 99.5091L1096.96 117.673L1116.95 117.056ZM1164.92 110.952L1180.06 97.8798L1173.04 89.7576L1162.4 91.1121L1164.92 110.952ZM1171.88 119.009L1156.74 132.081L1165.41 142.114L1178.02 138.042L1171.88 119.009ZM1235.41 139.053C1256.26 132.453 1269.41 129.976 1276.37 129.976V89.9756C1262.83 89.9756 1244.65 94.1713 1223.34 100.918L1235.41 139.053ZM1276.37 129.976C1281.76 129.976 1285.2 131.064 1287.47 132.36L1307.27 97.6008C1297.82 92.224 1287.26 89.9756 1276.37 89.9756V129.976ZM1287.43 132.333C1291.8 134.839 1297.85 139.957 1305.47 149.061L1336.14 123.38C1327 112.464 1317.43 103.422 1307.31 97.6276L1287.43 132.333ZM1305.47 149.061C1312.75 157.755 1315.92 164.268 1316.98 168.685L1355.89 159.42C1352.87 146.748 1345.62 134.706 1336.14 123.38L1305.47 149.061ZM1317.02 168.882C1321.08 185.188 1322.9 198.635 1322.9 209.463H1362.9C1362.9 194.412 1360.41 177.586 1355.84 159.223L1317.02 168.882ZM1322.9 209.463C1322.9 215.431 1322.51 221.844 1321.7 228.72L1361.42 233.419C1362.4 225.158 1362.9 217.167 1362.9 209.463H1322.9ZM1321.7 228.695C1320.85 235.827 1319.51 245.192 1317.66 256.867L1357.16 263.133C1359.05 251.208 1360.48 241.286 1361.42 233.444L1321.7 228.695ZM1336.21 240.036L1285.19 243.087L1287.58 283.016L1338.6 279.964L1336.21 240.036ZM1306.37 263.851C1306.55 259.378 1306.63 253.202 1306.63 245.474H1266.63C1266.63 253.044 1266.55 258.587 1266.4 262.252L1306.37 263.851ZM1306.63 245.474C1306.63 211.843 1302.01 182.075 1292.06 156.742L1254.83 171.364C1262.46 190.79 1266.63 215.303 1266.63 245.474H1306.63ZM1291.96 156.495C1289.7 150.951 1286.57 145.407 1282.1 140.771L1253.31 168.536C1253.23 168.457 1253.93 169.18 1254.93 171.611L1291.96 156.495ZM1282.1 140.771C1279.05 137.601 1272.09 131.235 1261.85 131.235V171.235C1258.19 171.235 1255.64 170.021 1254.52 169.365C1253.41 168.721 1253.02 168.236 1253.31 168.536L1282.1 140.771ZM1261.85 131.235C1255.64 131.235 1248.35 133.802 1243.52 140.606C1239.59 146.151 1239.16 152 1239.16 155.02H1279.16C1279.16 155.517 1279.18 159.473 1276.14 163.756C1274.46 166.129 1272.1 168.202 1269.17 169.574C1266.36 170.898 1263.74 171.235 1261.85 171.235V131.235ZM1239.16 155.02C1239.16 157.875 1239.47 161.22 1240.53 164.685L1278.76 152.922C1278.98 153.624 1279.08 154.172 1279.12 154.505C1279.14 154.675 1279.15 154.805 1279.16 154.888C1279.16 154.972 1279.16 155.017 1279.16 155.02H1239.16ZM1241.33 166.82C1241.29 166.731 1241.35 166.859 1241.49 167.284C1241.62 167.695 1241.79 168.281 1242 169.072L1280.72 159.033C1280.02 156.339 1279.14 153.456 1277.97 150.787L1241.33 166.82ZM1241.95 168.882C1246.11 185.593 1247.95 199.019 1247.95 209.463H1287.95C1287.95 194.678 1285.4 177.831 1280.77 159.223L1241.95 168.882ZM1247.95 209.463C1247.95 214.775 1247.6 220.492 1246.87 226.63L1286.59 231.358C1287.49 223.824 1287.95 216.52 1287.95 209.463H1247.95ZM1246.87 226.602C1246.09 233.093 1244.7 243.221 1242.67 257.107L1282.25 262.893C1284.29 248.947 1285.74 238.404 1286.59 231.386L1246.87 226.602ZM1261.26 240.036L1210.24 243.087L1212.63 283.016L1263.65 279.964L1261.26 240.036ZM1231.42 263.851C1231.59 259.378 1231.68 253.202 1231.68 245.474H1191.68C1191.68 253.044 1191.59 258.587 1191.45 262.252L1231.42 263.851ZM1231.68 245.474C1231.68 211.754 1227.01 181.951 1216.95 156.66L1179.79 171.445C1187.47 190.751 1191.68 215.228 1191.68 245.474H1231.68ZM1216.9 156.525C1216.33 155.124 1215.87 153.608 1215.54 151.952L1176.32 159.796C1177.13 163.837 1178.29 167.773 1179.84 171.58L1216.9 156.525ZM1215.56 152.057C1215.25 150.466 1214.89 148.741 1214.47 147.225C1214.29 146.592 1213.89 145.184 1213.2 143.631C1212.9 142.964 1212.09 141.192 1210.59 139.269C1209.93 138.412 1204.68 131.479 1194.71 131.479V171.479C1189.54 171.479 1185.65 169.518 1183.37 167.941C1181.16 166.408 1179.75 164.764 1179.02 163.827C1177.6 161.996 1176.86 160.361 1176.65 159.877C1176.34 159.186 1176.15 158.652 1176.08 158.422C1175.99 158.157 1175.94 157.98 1175.93 157.931C1175.91 157.88 1176.04 158.352 1176.3 159.691L1215.56 152.057ZM1194.71 131.479C1189.85 131.479 1186.26 133.216 1184.41 134.314C1182.48 135.462 1181.15 136.696 1180.42 137.427C1178.97 138.873 1178.04 140.24 1177.65 140.826C1176.79 142.142 1176.15 143.409 1175.8 144.123C1175.01 145.732 1174.18 147.695 1173.36 149.721L1210.44 164.713C1211.17 162.914 1211.58 162.008 1211.73 161.705C1211.85 161.462 1211.6 162.012 1211.04 162.85C1210.82 163.197 1210.03 164.385 1208.7 165.711C1208.03 166.383 1206.75 167.571 1204.87 168.69C1203.07 169.758 1199.53 171.479 1194.71 171.479V131.479ZM1173.36 149.721C1171.89 153.345 1170.3 157.105 1168.59 161.003L1205.2 177.112C1207.07 172.872 1208.82 168.739 1210.44 164.713L1173.36 149.721ZM1168.51 161.179C1166.71 165.378 1165.35 169.853 1164.32 174.485L1203.37 183.162C1203.97 180.469 1204.64 178.434 1205.28 176.936L1168.51 161.179ZM1164.23 174.901C1163.33 179.408 1162.67 184.25 1162.21 189.374L1202.06 192.931C1202.41 188.94 1202.89 185.563 1203.46 182.746L1164.23 174.901ZM1162.19 189.727C1161.82 194.891 1161.65 200.759 1161.65 207.266H1201.65C1201.65 201.402 1201.8 196.528 1202.08 192.577L1162.19 189.727ZM1161.65 207.266C1161.65 220.497 1162.42 236.957 1163.9 256.51L1203.79 253.48C1202.34 234.459 1201.65 219.1 1201.65 207.266H1161.65ZM1181.54 235.129L1121.6 242.087L1126.21 281.82L1186.15 274.862L1181.54 235.129ZM1143.72 259.251C1142.77 252.227 1141.89 245.245 1141.09 238.307L1101.35 242.875C1102.18 250.096 1103.1 257.357 1104.09 264.655L1143.72 259.251ZM1141.09 238.307C1140.3 231.411 1139.67 225.085 1139.2 219.321L1099.33 222.554C1099.84 228.834 1100.52 235.611 1101.35 242.875L1141.09 238.307ZM1139.22 219.607C1138.85 214.004 1138.66 207.901 1138.66 201.284H1098.66C1098.66 208.665 1098.87 215.664 1099.31 222.268L1139.22 219.607ZM1138.66 201.284C1138.66 198.853 1138.79 194.952 1139.11 189.364L1099.18 187.082C1098.85 192.887 1098.66 197.694 1098.66 201.284H1138.66ZM1139.14 187.605L1136.94 116.438L1096.96 117.673L1099.16 188.84L1139.14 187.605ZM1119.47 136.896L1167.45 130.792L1162.4 91.1121L1114.43 97.2156L1119.47 136.896ZM1149.79 124.025L1156.74 132.081L1187.02 105.936L1180.06 97.8798L1149.79 124.025ZM1178.02 138.042C1190.02 134.168 1198.25 132.783 1203.38 132.783V92.7832C1192.23 92.7832 1179.45 95.5485 1165.74 99.9758L1178.02 138.042ZM1203.38 132.783C1208.67 132.783 1213.91 134.144 1219.36 137.298L1239.39 102.673C1228.24 96.2234 1216.14 92.7832 1203.38 92.7832V132.783ZM1496.01 166.982L1489.13 185.76L1492.46 186.982H1496.01V166.982ZM1478.19 161.367L1472.21 180.454L1472.31 180.485L1472.41 180.515L1478.19 161.367ZM1453.04 153.799L1447.49 173.013L1447.52 173.021L1447.55 173.029L1453.04 153.799ZM1402.02 145.986L1391.88 128.748L1390.88 129.332L1389.97 130.026L1402.02 145.986ZM1408 164.663L1401.1 183.436L1401.19 183.468L1401.27 183.498L1408 164.663ZM1437.05 171.011L1434.64 190.865L1434.76 190.879L1434.88 190.892L1437.05 171.011ZM1474.89 181.997L1464.8 199.262L1464.83 199.281L1464.86 199.299L1474.89 181.997ZM1495.89 201.65L1478.56 211.634L1478.58 211.675L1478.61 211.716L1495.89 201.65ZM1499.06 239.98L1517.15 248.511L1517.2 248.407L1517.25 248.303L1499.06 239.98ZM1419.96 267.568L1423.45 247.874L1423.36 247.859L1423.28 247.845L1419.96 267.568ZM1393.47 261.709L1398.84 242.444L1398.78 242.426L1398.72 242.409L1393.47 261.709ZM1340.01 244.985L1321.99 236.309L1312.07 256.899L1333.79 263.996L1340.01 244.985ZM1348.06 229.116L1365.76 238.431L1365.79 238.384L1365.81 238.336L1348.06 229.116ZM1357.58 210.806L1375.32 220.04L1375.37 219.944L1375.42 219.848L1357.58 210.806ZM1362.1 201.04L1375.73 186.402L1342.1 155.093V201.04H1362.1ZM1370.89 206.411L1363.54 225.01L1363.79 225.112L1364.05 225.207L1370.89 206.411ZM1386.39 211.172L1381.05 230.446L1381.19 230.483L1381.33 230.519L1386.39 211.172ZM1402.02 216.055L1394.44 234.566L1394.75 234.69L1395.06 234.805L1402.02 216.055ZM1441.45 218.862L1445.82 238.378L1445.98 238.342L1446.14 238.304L1441.45 218.862ZM1449.01 216.055L1467.29 224.177L1469.01 220.299V216.055H1449.01ZM1438.15 209.829L1432.48 229.009L1432.61 229.048L1432.74 229.084L1438.15 209.829ZM1414.1 204.946L1416.65 185.109L1416.5 185.09L1416.35 185.073L1414.1 204.946ZM1383.58 197.622L1376.55 216.342L1376.64 216.376L1376.73 216.409L1383.58 197.622ZM1353.07 128.042L1371.21 136.455L1371.24 136.392L1371.27 136.329L1353.07 128.042ZM1373.58 106.313L1382.39 124.266L1382.46 124.234L1382.52 124.202L1373.58 106.313ZM1515.05 124.99L1533.18 133.448L1542.74 112.963L1521.24 105.971L1515.05 124.99ZM1508.34 140.615L1526.72 148.494L1526.74 148.464L1526.75 148.435L1508.34 140.615ZM1502.9 148.205C1499.79 147.065 1493.22 145.011 1483.97 142.22L1472.41 180.515C1482.04 183.42 1487.35 185.11 1489.13 185.76L1502.9 148.205ZM1484.16 142.281C1474.69 139.314 1466.14 136.741 1458.54 134.568L1447.55 173.029C1454.76 175.089 1462.97 177.561 1472.21 180.454L1484.16 142.281ZM1458.59 134.585C1450.79 132.329 1442.27 130.192 1433.05 128.163L1424.45 167.227C1432.98 169.105 1440.65 171.037 1447.49 173.013L1458.59 134.585ZM1433.05 128.163C1423.73 126.11 1415.14 124.766 1408 124.766V164.766C1410.79 164.766 1416.03 165.374 1424.45 167.227L1433.05 128.163ZM1408 124.766C1403.82 124.766 1397.69 125.329 1391.88 128.748L1412.16 163.225C1410.52 164.191 1409.16 164.542 1408.55 164.667C1407.93 164.794 1407.69 164.766 1408 164.766V124.766ZM1389.97 130.026C1385.44 133.44 1376.04 141.463 1376.04 154.287H1416.04C1416.04 158.473 1414.37 161.169 1413.76 162.012C1413.18 162.817 1413 162.753 1414.07 161.947L1389.97 130.026ZM1376.04 154.287C1376.04 163.809 1381.05 170.756 1385.92 174.981C1390.52 178.968 1396.06 181.583 1401.1 183.436L1414.9 145.89C1413.56 145.4 1412.69 144.996 1412.19 144.725C1411.66 144.442 1411.73 144.417 1412.13 144.763C1412.53 145.112 1413.51 146.056 1414.41 147.737C1415.38 149.533 1416.04 151.794 1416.04 154.287H1376.04ZM1401.27 183.498C1411.04 186.985 1422.26 189.361 1434.64 190.865L1439.46 151.157C1429.06 149.893 1420.91 148.037 1414.73 145.828L1401.27 183.498ZM1434.88 190.892C1448.78 192.413 1458.41 195.525 1464.8 199.262L1484.99 164.732C1472.17 157.239 1456.57 153.027 1439.23 151.129L1434.88 190.892ZM1464.86 199.299C1472.39 203.664 1476.44 207.954 1478.56 211.634L1513.22 191.667C1506.71 180.373 1496.77 171.561 1484.93 164.695L1464.86 199.299ZM1478.61 211.716C1481.32 216.371 1482.36 220.538 1482.36 224.478H1522.36C1522.36 212.792 1519.09 201.741 1513.17 191.585L1478.61 211.716ZM1482.36 224.478C1482.36 227.28 1481.82 229.594 1480.88 231.658L1517.25 248.303C1520.7 240.764 1522.36 232.743 1522.36 224.478H1482.36ZM1480.97 231.45C1477.91 237.94 1473.84 242.172 1468.73 244.999C1463.38 247.954 1455.71 250.01 1444.74 250.01V290.01C1460.55 290.01 1475.32 287.061 1488.08 280.006C1501.07 272.823 1510.77 262.04 1517.15 248.511L1480.97 231.45ZM1444.74 250.01C1438.85 250.01 1431.79 249.351 1423.45 247.874L1416.48 287.262C1426.53 289.041 1435.98 290.01 1444.74 290.01V250.01ZM1423.28 247.845C1414.73 246.408 1406.59 244.604 1398.84 242.444L1388.1 280.974C1397.28 283.534 1406.8 285.636 1416.65 287.292L1423.28 247.845ZM1398.72 242.409C1390.69 240.227 1382.05 237.638 1372.8 234.63L1360.44 272.674C1370.22 275.852 1379.49 278.633 1388.23 281.009L1398.72 242.409ZM1372.8 234.63C1363.28 231.541 1354.42 228.656 1346.22 225.974L1333.79 263.996C1342.03 266.686 1350.91 269.579 1360.44 272.674L1372.8 234.63ZM1358.03 253.662C1360 249.552 1362.57 244.487 1365.76 238.431L1330.36 219.801C1327.04 226.115 1324.24 231.63 1321.99 236.309L1358.03 253.662ZM1365.81 238.336C1369.06 232.074 1372.23 225.976 1375.32 220.04L1339.84 201.571C1336.75 207.517 1333.57 213.625 1330.31 219.896L1365.81 238.336ZM1375.42 219.848C1376.96 216.811 1378.22 214.26 1379.12 212.304C1379.56 211.355 1380.03 210.305 1380.43 209.296C1380.62 208.809 1380.9 208.059 1381.17 207.184C1381.25 206.925 1382.1 204.33 1382.1 201.04H1342.1C1342.1 200.002 1342.18 199.149 1342.26 198.57C1342.33 197.971 1342.43 197.472 1342.5 197.108C1342.65 196.401 1342.8 195.861 1342.89 195.575C1343.06 195.01 1343.2 194.654 1343.21 194.646C1343.23 194.593 1343.13 194.834 1342.82 195.513C1342.22 196.813 1341.22 198.86 1339.74 201.764L1375.42 219.848ZM1348.47 215.678C1352.94 219.834 1358.1 222.86 1363.54 225.01L1378.24 187.812C1376.68 187.195 1375.98 186.64 1375.73 186.402L1348.47 215.678ZM1364.05 225.207C1368.38 226.778 1374.14 228.529 1381.05 230.446L1391.73 191.898C1385.14 190.071 1380.57 188.648 1377.72 187.615L1364.05 225.207ZM1381.33 230.519C1387.88 232.237 1392.09 233.602 1394.44 234.566L1409.59 197.544C1404.79 195.578 1398.58 193.688 1391.46 191.824L1381.33 230.519ZM1395.06 234.805C1405.19 238.566 1415.73 240.449 1426.55 240.449V200.449C1420.45 200.449 1414.63 199.403 1408.98 197.304L1395.06 234.805ZM1426.55 240.449C1433.12 240.449 1439.56 239.781 1445.82 238.378L1437.07 199.347C1433.89 200.059 1430.4 200.449 1426.55 200.449V240.449ZM1446.14 238.304C1448.76 237.671 1451.47 236.935 1453.83 236.057C1454.97 235.637 1456.68 234.947 1458.47 233.9C1459.3 233.415 1464.47 230.531 1467.29 224.177L1430.74 207.932C1432.25 204.529 1434.35 202.421 1435.45 201.439C1436.65 200.367 1437.7 199.707 1438.25 199.384C1438.85 199.032 1439.31 198.815 1439.54 198.716C1439.78 198.608 1439.92 198.556 1439.92 198.555C1439.93 198.551 1439.87 198.575 1439.71 198.625C1439.56 198.674 1439.35 198.739 1439.07 198.82C1438.49 198.983 1437.73 199.184 1436.75 199.421L1446.14 238.304ZM1469.01 216.055C1469.01 209.404 1466.07 204.414 1463.47 201.399C1460.99 198.533 1458.22 196.689 1456.24 195.559C1452.3 193.297 1447.72 191.742 1443.56 190.574L1432.74 229.084C1435.83 229.951 1436.68 230.451 1436.35 230.264C1436.19 230.171 1434.77 229.37 1433.2 227.552C1431.5 225.585 1429.01 221.648 1429.01 216.055H1469.01ZM1443.82 190.649C1435.46 188.179 1426.38 186.359 1416.65 185.109L1411.55 224.783C1419.57 225.813 1426.52 227.247 1432.48 229.009L1443.82 190.649ZM1416.35 185.073C1407.94 184.124 1399.32 182.075 1390.44 178.835L1376.73 216.409C1388.36 220.656 1400.08 223.49 1411.86 224.82L1416.35 185.073ZM1390.62 178.902C1383.02 176.042 1376.88 172.023 1371.88 166.916L1343.28 194.881C1352.61 204.423 1363.81 211.552 1376.55 216.342L1390.62 178.902ZM1371.88 166.916C1368.57 163.526 1366.84 159.597 1366.84 153.799H1326.84C1326.84 169.485 1332.28 183.623 1343.28 194.881L1371.88 166.916ZM1366.84 153.799C1366.84 149.009 1368.04 143.291 1371.21 136.455L1334.92 119.629C1329.79 130.697 1326.84 142.15 1326.84 153.799H1366.84ZM1371.27 136.329C1374.08 130.154 1377.78 126.528 1382.39 124.266L1364.76 88.3613C1351.14 95.051 1341.17 105.91 1334.87 119.755L1371.27 136.329ZM1382.52 124.202C1388.26 121.332 1395.95 119.478 1406.29 119.478V79.4775C1391.24 79.4775 1377.12 82.1799 1364.63 88.4249L1382.52 124.202ZM1406.29 119.478C1419.04 119.478 1432.39 121.282 1446.42 125.026L1456.74 86.3801C1439.67 81.824 1422.84 79.4775 1406.29 79.4775V119.478ZM1446.42 125.026C1461.46 129.041 1482.22 135.344 1508.87 144.01L1521.24 105.971C1494.34 97.2212 1472.79 90.6659 1456.74 86.3801L1446.42 125.026ZM1496.93 116.533C1496.17 118.164 1493.74 123.837 1489.93 132.796L1526.75 148.435C1528.7 143.846 1530.22 140.274 1531.32 137.708C1531.88 136.423 1532.31 135.41 1532.64 134.658C1532.81 134.281 1532.94 133.987 1533.04 133.765C1533.14 133.526 1533.18 133.439 1533.18 133.448L1496.93 116.533ZM1489.96 132.737C1486.06 141.826 1483.22 148.287 1481.39 152.254L1517.71 169.016C1519.79 164.519 1522.81 157.633 1526.72 148.494L1489.96 132.737ZM1481.39 152.254C1480.47 154.246 1479.94 155.277 1479.73 155.654C1479.58 155.929 1479.85 155.402 1480.46 154.586C1480.73 154.234 1481.58 153.11 1482.98 151.879C1483.69 151.249 1484.98 150.208 1486.8 149.252C1488.56 148.327 1491.77 146.982 1496.01 146.982V186.982C1503.85 186.982 1508.73 182.498 1509.42 181.887C1510.97 180.524 1512 179.202 1512.46 178.586C1513.47 177.241 1514.23 175.92 1514.67 175.137C1515.64 173.398 1516.68 171.255 1517.71 169.016L1481.39 152.254Z" fill="url(#paint0_linear_106_5)" mask="url(#path-1-outside-1_106_5)"/>
<defs>
<filter id="filter0_i_106_5" x="0.761719" y="0.716797" width="1541.98" height="342.064" filterUnits="userSpaceOnUse" color-interpolation-filters="sRGB">
<feFlood flood-opacity="0" result="BackgroundImageFix"/>
<feBlend mode="normal" in="SourceGraphic" in2="BackgroundImageFix" result="shape"/>
<feColorMatrix in="SourceAlpha" type="matrix" values="0 0 0 0 0 0 0 0 0 0 0 0 0 0 0 0 0 0 127 0" result="hardAlpha"/>
<feOffset dy="8"/>
<feComposite in2="hardAlpha" operator="arithmetic" k2="-1" k3="1"/>
<feColorMatrix type="matrix" values="0 0 0 0 0 0 0 0 0 0 0 0 0 0 0 0 0 0 0.4 0"/>
<feBlend mode="normal" in2="shape" result="effect1_innerShadow_106_5"/>
</filter>
<linearGradient id="paint0_linear_106_5" x1="39" y1="185" x2="1497" y2="185" gradientUnits="userSpaceOnUse">
<stop stop-color="#314B8C"/>
<stop offset="1" stop-color="#2A74BA"/>
</linearGradient>
</defs>
</svg>
